<svg xmlns="http://www.w3.org/2000/svg" xmlns:xlink="http://www.w3.org/1999/xlink" width="500" zoomAndPan="magnify" viewBox="0 0 375 374.999991" height="500" preserveAspectRatio="xMidYMid meet" version="1.0"><defs><g/><clipPath id="85bc0546e2"><path d="M 11.511719 11.511719 L 355.988281 11.511719 L 355.988281 355.988281 L 11.511719 355.988281 Z M 11.511719 11.511719 " clip-rule="nonzero"/></clipPath><clipPath id="932229656e"><path d="M 183.75 11.511719 C 88.625 11.511719 11.511719 88.625 11.511719 183.75 C 11.511719 278.875 88.625 355.988281 183.75 355.988281 C 278.875 355.988281 355.988281 278.875 355.988281 183.75 C 355.988281 88.625 278.875 11.511719 183.75 11.511719 Z M 183.75 11.511719 " clip-rule="nonzero"/></clipPath></defs><g clip-path="url(#85bc0546e2)"><g clip-path="url(#932229656e)"><path fill="#000000" d="M 11.511719 11.511719 L 355.988281 11.511719 L 355.988281 355.988281 L 11.511719 355.988281 Z M 11.511719 11.511719 " fill-opacity="1" fill-rule="nonzero"/></g></g><path stroke-linecap="butt" transform="matrix(2.206936, 0, 0, 2.206936, 181.723118, 34.137621)" fill="none" stroke-linejoin="miter" d="M 29.891347 92.888557 C 21.082117 92.888557 14.619891 90.245966 10.504669 84.960782 C 6.403607 79.661438 4.353961 71.747822 4.353961 61.221704 C 4.353961 40.167697 13.074692 29.639809 30.519692 29.639809 C 37.089888 29.639809 42.337902 31.236338 46.265505 34.427626 C 50.193108 37.618915 52.425063 42.231503 52.959599 48.268932 C 53.203858 50.752225 52.598522 52.628412 51.140052 53.899263 C 49.695742 55.170115 47.761145 55.80554 45.334491 55.80554 L 44.792875 55.80554 C 42.382152 55.80554 40.628094 55.141795 39.528931 53.812534 C 38.431539 52.485043 37.702303 50.541596 37.341226 47.985734 C 36.996078 45.690059 36.243833 44.051051 35.089801 43.070477 C 33.933999 42.088134 32.229501 41.596077 29.978076 41.596077 C 26.901837 41.596077 24.699972 43.061627 23.370711 45.994497 C 22.04322 48.925597 21.377705 54.000153 21.377705 61.221704 C 21.377705 66.420158 21.747632 70.425641 22.483947 73.241692 C 23.234422 76.043582 24.259245 77.978179 25.558416 79.047252 C 26.859357 80.116325 28.331987 80.650861 29.978076 80.650861 C 31.884353 80.650861 33.392383 80.325183 34.503935 79.675598 C 35.631418 79.026012 36.461542 77.89853 36.996078 76.296691 C 37.760713 73.928447 38.705887 72.137219 39.833369 70.924777 C 40.959081 69.712336 42.67774 69.10523 44.987574 69.10523 L 45.074303 69.10523 C 47.500957 69.10523 49.435553 69.791985 50.879864 71.163726 C 52.324174 72.519536 52.81446 74.498383 52.352494 77.098495 C 51.45688 82.484568 49.074476 86.461731 45.205282 89.031754 C 41.334319 91.603546 36.229674 92.888557 29.891347 92.888557 Z M 29.891347 92.888557 " stroke="#ffffff" stroke-width="23.289892" stroke-opacity="1" stroke-miterlimit="4"/><g fill="#009cda" fill-opacity="1"><g transform="translate(181.723118, 237.175729)"><g><path d="M 65.984375 1.953125 C 46.535156 1.953125 32.273438 -3.882812 23.203125 -15.5625 C 14.128906 -27.25 9.59375 -44.707031 9.59375 -67.9375 C 9.59375 -114.40625 28.847656 -137.640625 67.359375 -137.640625 C 81.847656 -137.640625 93.429688 -134.113281 102.109375 -127.0625 C 110.785156 -120.019531 115.710938 -109.84375 116.890625 -96.53125 C 117.410156 -91.039062 116.070312 -86.894531 112.875 -84.09375 C 109.675781 -81.289062 105.398438 -79.890625 100.046875 -79.890625 L 98.875 -79.890625 C 93.519531 -79.890625 89.632812 -81.359375 87.21875 -84.296875 C 84.8125 -87.234375 83.21875 -91.503906 82.4375 -97.109375 C 81.644531 -102.203125 79.976562 -105.828125 77.4375 -107.984375 C 74.894531 -110.140625 71.140625 -111.21875 66.171875 -111.21875 C 59.390625 -111.21875 54.53125 -107.984375 51.59375 -101.515625 C 48.65625 -95.054688 47.1875 -83.863281 47.1875 -67.9375 C 47.1875 -56.457031 48 -47.613281 49.625 -41.40625 C 51.257812 -35.207031 53.515625 -30.929688 56.390625 -28.578125 C 59.265625 -26.234375 62.523438 -25.0625 66.171875 -25.0625 C 70.347656 -25.0625 73.675781 -25.78125 76.15625 -27.21875 C 78.644531 -28.65625 80.472656 -31.132812 81.640625 -34.65625 C 83.335938 -39.875 85.425781 -43.820312 87.90625 -46.5 C 90.394531 -49.175781 94.179688 -50.515625 99.265625 -50.515625 L 99.46875 -50.515625 C 104.820312 -50.515625 109.097656 -49.015625 112.296875 -46.015625 C 115.492188 -43.015625 116.566406 -38.640625 115.515625 -32.890625 C 113.554688 -21.015625 108.300781 -12.238281 99.75 -6.5625 C 91.207031 -0.882812 79.953125 1.953125 65.984375 1.953125 Z M 65.984375 1.953125 "/></g></g></g><path stroke-linecap="butt" transform="matrix(2.098153, 0, 0, 2.098153, 28.664356, 46.661517)" fill="none" stroke-linejoin="miter" d="M 28.296694 91.9999 C 25.870825 91.9999 24.007207 91.350147 22.707701 90.050641 C 21.408195 88.751135 20.788231 86.887517 20.845945 84.461649 C 20.845945 80.563131 20.860839 76.679507 20.888765 72.808916 C 20.918554 68.925293 20.931586 65.062148 20.931586 61.221345 C 20.931586 57.365648 20.918554 53.502503 20.888765 49.631912 C 20.860839 45.763183 20.845945 41.907485 20.845945 38.066682 C 20.788231 35.640814 21.408195 33.777196 22.707701 32.47769 C 24.007207 31.16329 25.870825 30.50609 28.296694 30.50609 L 29.899666 30.50609 C 32.325534 30.50609 34.189152 31.16329 35.488658 32.47769 C 36.788164 33.777196 37.408129 35.640814 37.350414 38.066682 C 37.350414 41.142304 37.350414 44.217925 37.350414 47.293546 C 37.350414 50.369168 37.350414 53.474577 37.350414 56.607913 L 39.472817 55.178084 C 41.840971 53.64772 43.855391 51.257225 45.516078 48.008461 C 47.176764 44.744802 48.47627 41.220497 49.414595 37.437409 C 49.948919 35.126969 50.851871 33.395536 52.123451 32.239385 C 53.393168 31.085096 55.184178 30.50609 57.494617 30.50609 L 59.185092 30.50609 C 61.899533 30.50609 63.863686 31.293613 65.075689 32.868659 C 66.289554 34.441843 66.425462 36.528871 65.487137 39.127883 C 63.826451 43.676154 61.927459 47.727336 59.790163 51.279566 C 57.667761 54.831797 55.394556 57.285592 52.966826 58.642813 L 52.966826 59.076602 C 55.5677 59.495497 57.697549 60.433822 59.358235 61.891577 C 61.018922 63.3363 62.526945 65.862703 63.884165 69.472649 C 64.360775 70.772155 64.859725 72.397468 65.379155 74.346727 C 65.913479 76.295986 66.65632 79.220805 67.609539 83.119322 C 68.259292 85.906372 68.007955 88.086488 66.851805 89.661534 C 65.697516 91.219824 63.791077 91.9999 61.134351 91.9999 L 58.816464 91.9999 C 54.268194 91.9999 51.551891 89.546105 50.671281 84.634792 C 49.775776 79.898484 48.895165 76.260612 48.029449 73.719315 C 47.176764 71.178018 46.216098 69.409349 45.14745 68.411448 C 44.093696 67.400514 42.823978 66.895978 41.336435 66.895978 C 40.571253 66.895978 39.9215 66.910872 39.387176 66.938799 C 38.852852 66.968587 38.173311 67.09891 37.350414 67.329767 C 37.350414 70.174531 37.350414 73.019295 37.350414 75.864058 C 37.350414 78.693928 37.350414 81.559171 37.350414 84.461649 C 37.408129 86.887517 36.788164 88.751135 35.488658 90.050641 C 34.189152 91.350147 32.325534 91.9999 29.899666 91.9999 Z M 28.296694 91.9999 " stroke="#ffffff" stroke-width="23.289892" stroke-opacity="1" stroke-miterlimit="4"/><g fill="#ffe500" fill-opacity="1"><g transform="translate(58.267987, 239.691616)"><g><path d="M 29.78125 0 C 24.695312 0 20.785156 -1.363281 18.046875 -4.09375 C 15.316406 -6.820312 14.015625 -10.734375 14.140625 -15.828125 C 14.140625 -24.015625 14.171875 -32.171875 14.234375 -40.296875 C 14.296875 -48.421875 14.328125 -56.519531 14.328125 -64.59375 C 14.328125 -72.65625 14.296875 -80.75 14.234375 -88.875 C 14.171875 -97.007812 14.140625 -105.109375 14.140625 -113.171875 C 14.015625 -118.265625 15.316406 -122.175781 18.046875 -124.90625 C 20.785156 -127.632812 24.695312 -129 29.78125 -129 L 33.140625 -129 C 38.222656 -129 42.128906 -127.632812 44.859375 -124.90625 C 47.585938 -122.175781 48.890625 -118.265625 48.765625 -113.171875 C 48.765625 -106.722656 48.765625 -100.269531 48.765625 -93.8125 C 48.765625 -87.363281 48.765625 -80.847656 48.765625 -74.265625 L 53.234375 -77.25 C 58.203125 -80.476562 62.421875 -85.503906 65.890625 -92.328125 C 69.367188 -99.148438 72.097656 -106.53125 74.078125 -114.46875 C 75.203125 -119.3125 77.097656 -122.941406 79.765625 -125.359375 C 82.429688 -127.785156 86.179688 -129 91.015625 -129 L 94.5625 -129 C 100.269531 -129 104.394531 -127.351562 106.9375 -124.0625 C 109.476562 -120.769531 109.757812 -116.394531 107.78125 -110.9375 C 104.300781 -101.382812 100.328125 -92.882812 95.859375 -85.4375 C 91.390625 -77.988281 86.613281 -72.835938 81.53125 -69.984375 L 81.53125 -69.0625 C 86.988281 -68.1875 91.453125 -66.226562 94.921875 -63.1875 C 98.398438 -60.15625 101.566406 -54.851562 104.421875 -47.28125 C 105.410156 -44.550781 106.460938 -41.140625 107.578125 -37.046875 C 108.703125 -32.953125 110.257812 -26.804688 112.25 -18.609375 C 113.613281 -12.773438 113.082031 -8.210938 110.65625 -4.921875 C 108.238281 -1.640625 104.238281 0 98.65625 0 L 93.8125 0 C 84.257812 0 78.550781 -5.148438 76.6875 -15.453125 C 74.820312 -25.378906 72.988281 -33.007812 71.1875 -38.34375 C 69.394531 -43.675781 67.378906 -47.394531 65.140625 -49.5 C 62.910156 -51.613281 60.242188 -52.671875 57.140625 -52.671875 C 55.523438 -52.671875 54.160156 -52.640625 53.046875 -52.578125 C 51.929688 -52.515625 50.503906 -52.238281 48.765625 -51.75 C 48.765625 -45.789062 48.765625 -39.832031 48.765625 -33.875 C 48.765625 -27.914062 48.765625 -21.898438 48.765625 -15.828125 C 48.890625 -10.734375 47.585938 -6.820312 44.859375 -4.09375 C 42.128906 -1.363281 38.222656 0 33.140625 0 Z M 29.78125 0 "/></g></g></g></svg>